<?xml version="1.0" encoding="utf-8" standalone="no"?>
<!DOCTYPE svg PUBLIC "-//W3C//DTD SVG 1.1//EN"
  "http://www.w3.org/Graphics/SVG/1.1/DTD/svg11.dtd">
<svg xmlns:xlink="http://www.w3.org/1999/xlink" width="259.12675pt" height="185.277688pt" viewBox="0 0 259.12675 185.277688" xmlns="http://www.w3.org/2000/svg" version="1.1">
 <metadata>
  <rdf:RDF xmlns:dc="http://purl.org/dc/elements/1.1/" xmlns:cc="http://creativecommons.org/ns#" xmlns:rdf="http://www.w3.org/1999/02/22-rdf-syntax-ns#">
   <cc:Work>
    <dc:type rdf:resource="http://purl.org/dc/dcmitype/StillImage"/>
    <dc:date>2026-05-20T10:37:22.066308</dc:date>
    <dc:format>image/svg+xml</dc:format>
    <dc:creator>
     <cc:Agent>
      <dc:title>Matplotlib v3.10.8, https://matplotlib.org/</dc:title>
     </cc:Agent>
    </dc:creator>
   </cc:Work>
  </rdf:RDF>
 </metadata>
 <defs>
  <style type="text/css">*{stroke-linejoin: round; stroke-linecap: butt}</style>
 </defs>
 <g id="figure_1">
  <g id="patch_1">
   <path d="M -0 185.277688 
L 259.12675 185.277688 
L 259.12675 0 
L -0 0 
z
" style="fill: #ffffff"/>
  </g>
  <g id="axes_1">
   <g id="patch_2">
    <path d="M 32.07475 154.467938 
L 251.92675 154.467938 
L 251.92675 18.639938 
L 32.07475 18.639938 
z
" style="fill: #ffffff"/>
   </g>
   <g id="matplotlib.axis_1">
    <g id="xtick_1">
     <g id="line2d_1">
      <path d="M 42.068023 154.467938 
L 42.068023 18.639938 
" clip-path="url(#pc6787c53b2)" style="fill: none; stroke: #e5e7eb; stroke-width: 0.35; stroke-linecap: square"/>
     </g>
     <g id="line2d_2">
      <defs>
       <path id="m906995bc05" d="M 0 0 
L 0 3.5 
" style="stroke: #000000; stroke-width: 0.55"/>
      </defs>
      <g>
       <use xlink:href="#m906995bc05" x="42.068023" y="154.467938" style="stroke: #000000; stroke-width: 0.55"/>
      </g>
     </g>
     <g id="text_1">
      <text style="font-size: 6.4px; font-family: 'Arial', 'Helvetica', 'DejaVu Sans', sans-serif; text-anchor: middle" x="42.068023" y="166.048938" transform="rotate(-0 42.068023 166.048938)">1.0</text>
     </g>
    </g>
    <g id="xtick_2">
     <g id="line2d_3">
      <path d="M 67.051205 154.467938 
L 67.051205 18.639938 
" clip-path="url(#pc6787c53b2)" style="fill: none; stroke: #e5e7eb; stroke-width: 0.35; stroke-linecap: square"/>
     </g>
     <g id="line2d_4">
      <g>
       <use xlink:href="#m906995bc05" x="67.051205" y="154.467938" style="stroke: #000000; stroke-width: 0.55"/>
      </g>
     </g>
     <g id="text_2">
      <text style="font-size: 6.4px; font-family: 'Arial', 'Helvetica', 'DejaVu Sans', sans-serif; text-anchor: middle" x="67.051205" y="166.048938" transform="rotate(-0 67.051205 166.048938)">1.5</text>
     </g>
    </g>
    <g id="xtick_3">
     <g id="line2d_5">
      <path d="M 92.034386 154.467938 
L 92.034386 18.639938 
" clip-path="url(#pc6787c53b2)" style="fill: none; stroke: #e5e7eb; stroke-width: 0.35; stroke-linecap: square"/>
     </g>
     <g id="line2d_6">
      <g>
       <use xlink:href="#m906995bc05" x="92.034386" y="154.467938" style="stroke: #000000; stroke-width: 0.55"/>
      </g>
     </g>
     <g id="text_3">
      <text style="font-size: 6.4px; font-family: 'Arial', 'Helvetica', 'DejaVu Sans', sans-serif; text-anchor: middle" x="92.034386" y="166.048938" transform="rotate(-0 92.034386 166.048938)">2.0</text>
     </g>
    </g>
    <g id="xtick_4">
     <g id="line2d_7">
      <path d="M 117.017568 154.467938 
L 117.017568 18.639938 
" clip-path="url(#pc6787c53b2)" style="fill: none; stroke: #e5e7eb; stroke-width: 0.35; stroke-linecap: square"/>
     </g>
     <g id="line2d_8">
      <g>
       <use xlink:href="#m906995bc05" x="117.017568" y="154.467938" style="stroke: #000000; stroke-width: 0.55"/>
      </g>
     </g>
     <g id="text_4">
      <text style="font-size: 6.4px; font-family: 'Arial', 'Helvetica', 'DejaVu Sans', sans-serif; text-anchor: middle" x="117.017568" y="166.048938" transform="rotate(-0 117.017568 166.048938)">2.5</text>
     </g>
    </g>
    <g id="xtick_5">
     <g id="line2d_9">
      <path d="M 142.00075 154.467938 
L 142.00075 18.639938 
" clip-path="url(#pc6787c53b2)" style="fill: none; stroke: #e5e7eb; stroke-width: 0.35; stroke-linecap: square"/>
     </g>
     <g id="line2d_10">
      <g>
       <use xlink:href="#m906995bc05" x="142.00075" y="154.467938" style="stroke: #000000; stroke-width: 0.55"/>
      </g>
     </g>
     <g id="text_5">
      <text style="font-size: 6.4px; font-family: 'Arial', 'Helvetica', 'DejaVu Sans', sans-serif; text-anchor: middle" x="142.00075" y="166.048938" transform="rotate(-0 142.00075 166.048938)">3.0</text>
     </g>
    </g>
    <g id="xtick_6">
     <g id="line2d_11">
      <path d="M 166.983932 154.467938 
L 166.983932 18.639938 
" clip-path="url(#pc6787c53b2)" style="fill: none; stroke: #e5e7eb; stroke-width: 0.35; stroke-linecap: square"/>
     </g>
     <g id="line2d_12">
      <g>
       <use xlink:href="#m906995bc05" x="166.983932" y="154.467938" style="stroke: #000000; stroke-width: 0.55"/>
      </g>
     </g>
     <g id="text_6">
      <text style="font-size: 6.4px; font-family: 'Arial', 'Helvetica', 'DejaVu Sans', sans-serif; text-anchor: middle" x="166.983932" y="166.048938" transform="rotate(-0 166.983932 166.048938)">3.5</text>
     </g>
    </g>
    <g id="xtick_7">
     <g id="line2d_13">
      <path d="M 191.967114 154.467938 
L 191.967114 18.639938 
" clip-path="url(#pc6787c53b2)" style="fill: none; stroke: #e5e7eb; stroke-width: 0.35; stroke-linecap: square"/>
     </g>
     <g id="line2d_14">
      <g>
       <use xlink:href="#m906995bc05" x="191.967114" y="154.467938" style="stroke: #000000; stroke-width: 0.55"/>
      </g>
     </g>
     <g id="text_7">
      <text style="font-size: 6.4px; font-family: 'Arial', 'Helvetica', 'DejaVu Sans', sans-serif; text-anchor: middle" x="191.967114" y="166.048938" transform="rotate(-0 191.967114 166.048938)">4.0</text>
     </g>
    </g>
    <g id="xtick_8">
     <g id="line2d_15">
      <path d="M 216.950295 154.467938 
L 216.950295 18.639938 
" clip-path="url(#pc6787c53b2)" style="fill: none; stroke: #e5e7eb; stroke-width: 0.35; stroke-linecap: square"/>
     </g>
     <g id="line2d_16">
      <g>
       <use xlink:href="#m906995bc05" x="216.950295" y="154.467938" style="stroke: #000000; stroke-width: 0.55"/>
      </g>
     </g>
     <g id="text_8">
      <text style="font-size: 6.4px; font-family: 'Arial', 'Helvetica', 'DejaVu Sans', sans-serif; text-anchor: middle" x="216.950295" y="166.048938" transform="rotate(-0 216.950295 166.048938)">4.5</text>
     </g>
    </g>
    <g id="xtick_9">
     <g id="line2d_17">
      <path d="M 241.933477 154.467938 
L 241.933477 18.639938 
" clip-path="url(#pc6787c53b2)" style="fill: none; stroke: #e5e7eb; stroke-width: 0.35; stroke-linecap: square"/>
     </g>
     <g id="line2d_18">
      <g>
       <use xlink:href="#m906995bc05" x="241.933477" y="154.467938" style="stroke: #000000; stroke-width: 0.55"/>
      </g>
     </g>
     <g id="text_9">
      <text style="font-size: 6.4px; font-family: 'Arial', 'Helvetica', 'DejaVu Sans', sans-serif; text-anchor: middle" x="241.933477" y="166.048938" transform="rotate(-0 241.933477 166.048938)">5.0</text>
     </g>
    </g>
    <g id="text_10">
     <text style="font-size: 7.2px; font-family: 'Arial', 'Helvetica', 'DejaVu Sans', sans-serif; text-anchor: middle" x="142.00075" y="176.562313" transform="rotate(-0 142.00075 176.562313)">Prediction horizon (s)</text>
    </g>
   </g>
   <g id="matplotlib.axis_2">
    <g id="ytick_1">
     <g id="line2d_19">
      <path d="M 32.07475 152.981373 
L 251.92675 152.981373 
" clip-path="url(#pc6787c53b2)" style="fill: none; stroke: #e5e7eb; stroke-width: 0.35; stroke-linecap: square"/>
     </g>
     <g id="line2d_20">
      <defs>
       <path id="mc83c00dc26" d="M 0 0 
L -3.5 0 
" style="stroke: #000000; stroke-width: 0.55"/>
      </defs>
      <g>
       <use xlink:href="#mc83c00dc26" x="32.07475" y="152.981373" style="stroke: #000000; stroke-width: 0.55"/>
      </g>
     </g>
     <g id="text_11">
      <text style="font-size: 6.4px; font-family: 'Arial', 'Helvetica', 'DejaVu Sans', sans-serif; text-anchor: end" x="25.07475" y="155.271873" transform="rotate(-0 25.07475 155.271873)">0</text>
     </g>
    </g>
    <g id="ytick_2">
     <g id="line2d_21">
      <path d="M 32.07475 134.153632 
L 251.92675 134.153632 
" clip-path="url(#pc6787c53b2)" style="fill: none; stroke: #e5e7eb; stroke-width: 0.35; stroke-linecap: square"/>
     </g>
     <g id="line2d_22">
      <g>
       <use xlink:href="#mc83c00dc26" x="32.07475" y="134.153632" style="stroke: #000000; stroke-width: 0.55"/>
      </g>
     </g>
     <g id="text_12">
      <text style="font-size: 6.4px; font-family: 'Arial', 'Helvetica', 'DejaVu Sans', sans-serif; text-anchor: end" x="25.07475" y="136.444132" transform="rotate(-0 25.07475 136.444132)">2</text>
     </g>
    </g>
    <g id="ytick_3">
     <g id="line2d_23">
      <path d="M 32.07475 115.32589 
L 251.92675 115.32589 
" clip-path="url(#pc6787c53b2)" style="fill: none; stroke: #e5e7eb; stroke-width: 0.35; stroke-linecap: square"/>
     </g>
     <g id="line2d_24">
      <g>
       <use xlink:href="#mc83c00dc26" x="32.07475" y="115.32589" style="stroke: #000000; stroke-width: 0.55"/>
      </g>
     </g>
     <g id="text_13">
      <text style="font-size: 6.4px; font-family: 'Arial', 'Helvetica', 'DejaVu Sans', sans-serif; text-anchor: end" x="25.07475" y="117.61639" transform="rotate(-0 25.07475 117.61639)">4</text>
     </g>
    </g>
    <g id="ytick_4">
     <g id="line2d_25">
      <path d="M 32.07475 96.498149 
L 251.92675 96.498149 
" clip-path="url(#pc6787c53b2)" style="fill: none; stroke: #e5e7eb; stroke-width: 0.35; stroke-linecap: square"/>
     </g>
     <g id="line2d_26">
      <g>
       <use xlink:href="#mc83c00dc26" x="32.07475" y="96.498149" style="stroke: #000000; stroke-width: 0.55"/>
      </g>
     </g>
     <g id="text_14">
      <text style="font-size: 6.4px; font-family: 'Arial', 'Helvetica', 'DejaVu Sans', sans-serif; text-anchor: end" x="25.07475" y="98.788649" transform="rotate(-0 25.07475 98.788649)">6</text>
     </g>
    </g>
    <g id="ytick_5">
     <g id="line2d_27">
      <path d="M 32.07475 77.670408 
L 251.92675 77.670408 
" clip-path="url(#pc6787c53b2)" style="fill: none; stroke: #e5e7eb; stroke-width: 0.35; stroke-linecap: square"/>
     </g>
     <g id="line2d_28">
      <g>
       <use xlink:href="#mc83c00dc26" x="32.07475" y="77.670408" style="stroke: #000000; stroke-width: 0.55"/>
      </g>
     </g>
     <g id="text_15">
      <text style="font-size: 6.4px; font-family: 'Arial', 'Helvetica', 'DejaVu Sans', sans-serif; text-anchor: end" x="25.07475" y="79.960908" transform="rotate(-0 25.07475 79.960908)">8</text>
     </g>
    </g>
    <g id="ytick_6">
     <g id="line2d_29">
      <path d="M 32.07475 58.842666 
L 251.92675 58.842666 
" clip-path="url(#pc6787c53b2)" style="fill: none; stroke: #e5e7eb; stroke-width: 0.35; stroke-linecap: square"/>
     </g>
     <g id="line2d_30">
      <g>
       <use xlink:href="#mc83c00dc26" x="32.07475" y="58.842666" style="stroke: #000000; stroke-width: 0.55"/>
      </g>
     </g>
     <g id="text_16">
      <text style="font-size: 6.4px; font-family: 'Arial', 'Helvetica', 'DejaVu Sans', sans-serif; text-anchor: end" x="25.07475" y="61.133166" transform="rotate(-0 25.07475 61.133166)">10</text>
     </g>
    </g>
    <g id="ytick_7">
     <g id="line2d_31">
      <path d="M 32.07475 40.014925 
L 251.92675 40.014925 
" clip-path="url(#pc6787c53b2)" style="fill: none; stroke: #e5e7eb; stroke-width: 0.35; stroke-linecap: square"/>
     </g>
     <g id="line2d_32">
      <g>
       <use xlink:href="#mc83c00dc26" x="32.07475" y="40.014925" style="stroke: #000000; stroke-width: 0.55"/>
      </g>
     </g>
     <g id="text_17">
      <text style="font-size: 6.4px; font-family: 'Arial', 'Helvetica', 'DejaVu Sans', sans-serif; text-anchor: end" x="25.07475" y="42.305425" transform="rotate(-0 25.07475 42.305425)">12</text>
     </g>
    </g>
    <g id="ytick_8">
     <g id="line2d_33">
      <path d="M 32.07475 21.187183 
L 251.92675 21.187183 
" clip-path="url(#pc6787c53b2)" style="fill: none; stroke: #e5e7eb; stroke-width: 0.35; stroke-linecap: square"/>
     </g>
     <g id="line2d_34">
      <g>
       <use xlink:href="#mc83c00dc26" x="32.07475" y="21.187183" style="stroke: #000000; stroke-width: 0.55"/>
      </g>
     </g>
     <g id="text_18">
      <text style="font-size: 6.4px; font-family: 'Arial', 'Helvetica', 'DejaVu Sans', sans-serif; text-anchor: end" x="25.07475" y="23.477683" transform="rotate(-0 25.07475 23.477683)">14</text>
     </g>
    </g>
    <g id="text_19">
     <text style="font-size: 7.2px; font-family: 'Arial', 'Helvetica', 'DejaVu Sans', sans-serif; text-anchor: middle" x="12.441375" y="86.553938" transform="rotate(-90 12.441375 86.553938)">Mean displacement error (m)</text>
    </g>
   </g>
   <g id="line2d_35">
    <path d="M 42.068023 147.523714 
L 92.034386 138.779265 
L 142.00075 127.288412 
L 191.967114 113.381363 
L 241.933477 97.322301 
" clip-path="url(#pc6787c53b2)" style="fill: none; stroke: #7a8793; stroke-linecap: square"/>
    <defs>
     <path id="m89a1549310" d="M 0 1.3 
C 0.344764 1.3 0.675454 1.163024 0.919239 0.919239 
C 1.163024 0.675454 1.3 0.344764 1.3 0 
C 1.3 -0.344764 1.163024 -0.675454 0.919239 -0.919239 
C 0.675454 -1.163024 0.344764 -1.3 0 -1.3 
C -0.344764 -1.3 -0.675454 -1.163024 -0.919239 -0.919239 
C -1.163024 -0.675454 -1.3 -0.344764 -1.3 0 
C -1.3 0.344764 -1.163024 0.675454 -0.919239 0.919239 
C -0.675454 1.163024 -0.344764 1.3 0 1.3 
z
" style="stroke: #7a8793"/>
    </defs>
    <g clip-path="url(#pc6787c53b2)">
     <use xlink:href="#m89a1549310" x="42.068023" y="147.523714" style="fill: #7a8793; stroke: #7a8793"/>
     <use xlink:href="#m89a1549310" x="92.034386" y="138.779265" style="fill: #7a8793; stroke: #7a8793"/>
     <use xlink:href="#m89a1549310" x="142.00075" y="127.288412" style="fill: #7a8793; stroke: #7a8793"/>
     <use xlink:href="#m89a1549310" x="191.967114" y="113.381363" style="fill: #7a8793; stroke: #7a8793"/>
     <use xlink:href="#m89a1549310" x="241.933477" y="97.322301" style="fill: #7a8793; stroke: #7a8793"/>
    </g>
   </g>
   <g id="line2d_36">
    <path d="M 42.068023 145.765921 
L 92.034386 129.479001 
L 142.00075 104.016826 
L 191.967114 69.159571 
L 241.933477 24.813938 
" clip-path="url(#pc6787c53b2)" style="fill: none; stroke: #9aa4ae; stroke-linecap: square"/>
    <defs>
     <path id="m7bb64fbd9f" d="M 0 1.3 
C 0.344764 1.3 0.675454 1.163024 0.919239 0.919239 
C 1.163024 0.675454 1.3 0.344764 1.3 0 
C 1.3 -0.344764 1.163024 -0.675454 0.919239 -0.919239 
C 0.675454 -1.163024 0.344764 -1.3 0 -1.3 
C -0.344764 -1.3 -0.675454 -1.163024 -0.919239 -0.919239 
C -1.163024 -0.675454 -1.3 -0.344764 -1.3 0 
C -1.3 0.344764 -1.163024 0.675454 -0.919239 0.919239 
C -0.675454 1.163024 -0.344764 1.3 0 1.3 
z
" style="stroke: #9aa4ae"/>
    </defs>
    <g clip-path="url(#pc6787c53b2)">
     <use xlink:href="#m7bb64fbd9f" x="42.068023" y="145.765921" style="fill: #9aa4ae; stroke: #9aa4ae"/>
     <use xlink:href="#m7bb64fbd9f" x="92.034386" y="129.479001" style="fill: #9aa4ae; stroke: #9aa4ae"/>
     <use xlink:href="#m7bb64fbd9f" x="142.00075" y="104.016826" style="fill: #9aa4ae; stroke: #9aa4ae"/>
     <use xlink:href="#m7bb64fbd9f" x="191.967114" y="69.159571" style="fill: #9aa4ae; stroke: #9aa4ae"/>
     <use xlink:href="#m7bb64fbd9f" x="241.933477" y="24.813938" style="fill: #9aa4ae; stroke: #9aa4ae"/>
    </g>
   </g>
   <g id="line2d_37">
    <path d="M 42.068023 148.186015 
L 92.034386 140.139052 
L 142.00075 129.604994 
L 191.967114 116.675099 
L 241.933477 101.512407 
" clip-path="url(#pc6787c53b2)" style="fill: none; stroke: #4b88a2; stroke-linecap: square"/>
    <defs>
     <path id="m6fb3cae1d9" d="M 0 1.3 
C 0.344764 1.3 0.675454 1.163024 0.919239 0.919239 
C 1.163024 0.675454 1.3 0.344764 1.3 0 
C 1.3 -0.344764 1.163024 -0.675454 0.919239 -0.919239 
C 0.675454 -1.163024 0.344764 -1.3 0 -1.3 
C -0.344764 -1.3 -0.675454 -1.163024 -0.919239 -0.919239 
C -1.163024 -0.675454 -1.3 -0.344764 -1.3 0 
C -1.3 0.344764 -1.163024 0.675454 -0.919239 0.919239 
C -0.675454 1.163024 -0.344764 1.3 0 1.3 
z
" style="stroke: #4b88a2"/>
    </defs>
    <g clip-path="url(#pc6787c53b2)">
     <use xlink:href="#m6fb3cae1d9" x="42.068023" y="148.186015" style="fill: #4b88a2; stroke: #4b88a2"/>
     <use xlink:href="#m6fb3cae1d9" x="92.034386" y="140.139052" style="fill: #4b88a2; stroke: #4b88a2"/>
     <use xlink:href="#m6fb3cae1d9" x="142.00075" y="129.604994" style="fill: #4b88a2; stroke: #4b88a2"/>
     <use xlink:href="#m6fb3cae1d9" x="191.967114" y="116.675099" style="fill: #4b88a2; stroke: #4b88a2"/>
     <use xlink:href="#m6fb3cae1d9" x="241.933477" y="101.512407" style="fill: #4b88a2; stroke: #4b88a2"/>
    </g>
   </g>
   <g id="line2d_38">
    <path d="M 42.068023 148.183554 
L 92.034386 140.192327 
L 142.00075 129.743202 
L 191.967114 116.953185 
L 241.933477 101.979183 
" clip-path="url(#pc6787c53b2)" style="fill: none; stroke: #7fb3b5; stroke-linecap: square"/>
    <defs>
     <path id="mbc68c2bc08" d="M 0 1.3 
C 0.344764 1.3 0.675454 1.163024 0.919239 0.919239 
C 1.163024 0.675454 1.3 0.344764 1.3 0 
C 1.3 -0.344764 1.163024 -0.675454 0.919239 -0.919239 
C 0.675454 -1.163024 0.344764 -1.3 0 -1.3 
C -0.344764 -1.3 -0.675454 -1.163024 -0.919239 -0.919239 
C -1.163024 -0.675454 -1.3 -0.344764 -1.3 0 
C -1.3 0.344764 -1.163024 0.675454 -0.919239 0.919239 
C -0.675454 1.163024 -0.344764 1.3 0 1.3 
z
" style="stroke: #7fb3b5"/>
    </defs>
    <g clip-path="url(#pc6787c53b2)">
     <use xlink:href="#mbc68c2bc08" x="42.068023" y="148.183554" style="fill: #7fb3b5; stroke: #7fb3b5"/>
     <use xlink:href="#mbc68c2bc08" x="92.034386" y="140.192327" style="fill: #7fb3b5; stroke: #7fb3b5"/>
     <use xlink:href="#mbc68c2bc08" x="142.00075" y="129.743202" style="fill: #7fb3b5; stroke: #7fb3b5"/>
     <use xlink:href="#mbc68c2bc08" x="191.967114" y="116.953185" style="fill: #7fb3b5; stroke: #7fb3b5"/>
     <use xlink:href="#mbc68c2bc08" x="241.933477" y="101.979183" style="fill: #7fb3b5; stroke: #7fb3b5"/>
    </g>
   </g>
   <g id="line2d_39">
    <path d="M 42.068023 148.293938 
L 92.034386 140.529326 
L 142.00075 130.299505 
L 191.967114 117.786773 
L 241.933477 103.064317 
" clip-path="url(#pc6787c53b2)" style="fill: none; stroke: #b07aa1; stroke-linecap: square"/>
    <defs>
     <path id="m915576f4d2" d="M 0 1.3 
C 0.344764 1.3 0.675454 1.163024 0.919239 0.919239 
C 1.163024 0.675454 1.3 0.344764 1.3 0 
C 1.3 -0.344764 1.163024 -0.675454 0.919239 -0.919239 
C 0.675454 -1.163024 0.344764 -1.3 0 -1.3 
C -0.344764 -1.3 -0.675454 -1.163024 -0.919239 -0.919239 
C -1.163024 -0.675454 -1.3 -0.344764 -1.3 0 
C -1.3 0.344764 -1.163024 0.675454 -0.919239 0.919239 
C -0.675454 1.163024 -0.344764 1.3 0 1.3 
z
" style="stroke: #b07aa1"/>
    </defs>
    <g clip-path="url(#pc6787c53b2)">
     <use xlink:href="#m915576f4d2" x="42.068023" y="148.293938" style="fill: #b07aa1; stroke: #b07aa1"/>
     <use xlink:href="#m915576f4d2" x="92.034386" y="140.529326" style="fill: #b07aa1; stroke: #b07aa1"/>
     <use xlink:href="#m915576f4d2" x="142.00075" y="130.299505" style="fill: #b07aa1; stroke: #b07aa1"/>
     <use xlink:href="#m915576f4d2" x="191.967114" y="117.786773" style="fill: #b07aa1; stroke: #b07aa1"/>
     <use xlink:href="#m915576f4d2" x="241.933477" y="103.064317" style="fill: #b07aa1; stroke: #b07aa1"/>
    </g>
   </g>
   <g id="line2d_40">
    <path d="M 42.068023 148.28677 
L 92.034386 140.535712 
L 142.00075 130.326142 
L 191.967114 117.8471 
L 241.933477 103.163865 
" clip-path="url(#pc6787c53b2)" style="fill: none; stroke: #d95f02; stroke-linecap: square"/>
    <defs>
     <path id="m7598a57b88" d="M 0 1.3 
C 0.344764 1.3 0.675454 1.163024 0.919239 0.919239 
C 1.163024 0.675454 1.3 0.344764 1.3 0 
C 1.3 -0.344764 1.163024 -0.675454 0.919239 -0.919239 
C 0.675454 -1.163024 0.344764 -1.3 0 -1.3 
C -0.344764 -1.3 -0.675454 -1.163024 -0.919239 -0.919239 
C -1.163024 -0.675454 -1.3 -0.344764 -1.3 0 
C -1.3 0.344764 -1.163024 0.675454 -0.919239 0.919239 
C -0.675454 1.163024 -0.344764 1.3 0 1.3 
z
" style="stroke: #d95f02"/>
    </defs>
    <g clip-path="url(#pc6787c53b2)">
     <use xlink:href="#m7598a57b88" x="42.068023" y="148.28677" style="fill: #d95f02; stroke: #d95f02"/>
     <use xlink:href="#m7598a57b88" x="92.034386" y="140.535712" style="fill: #d95f02; stroke: #d95f02"/>
     <use xlink:href="#m7598a57b88" x="142.00075" y="130.326142" style="fill: #d95f02; stroke: #d95f02"/>
     <use xlink:href="#m7598a57b88" x="191.967114" y="117.8471" style="fill: #d95f02; stroke: #d95f02"/>
     <use xlink:href="#m7598a57b88" x="241.933477" y="103.163865" style="fill: #d95f02; stroke: #d95f02"/>
    </g>
   </g>
   <g id="patch_3">
    <path d="M 32.07475 154.467938 
L 32.07475 18.639938 
" style="fill: none; stroke: #000000; stroke-width: 0.65; stroke-linejoin: miter; stroke-linecap: square"/>
   </g>
   <g id="patch_4">
    <path d="M 32.07475 154.467938 
L 251.92675 154.467938 
" style="fill: none; stroke: #000000; stroke-width: 0.65; stroke-linejoin: miter; stroke-linecap: square"/>
   </g>
   <g id="text_20">
    <text style="font-size: 7.6px; font-family: 'Arial', 'Helvetica', 'DejaVu Sans', sans-serif; text-anchor: middle" x="142.00075" y="12.639938" transform="rotate(-0 142.00075 12.639938)">Error accumulation over the 5 s forecast</text>
   </g>
   <g id="legend_1">
    <g id="line2d_41">
     <path d="M 37.65475 26.487781 
L 43.85475 26.487781 
L 50.05475 26.487781 
" style="fill: none; stroke: #7a8793; stroke-linecap: square"/>
     <g>
      <use xlink:href="#m89a1549310" x="43.85475" y="26.487781" style="fill: #7a8793; stroke: #7a8793"/>
     </g>
    </g>
    <g id="text_21">
     <text style="font-size: 6.2px; font-family: 'Arial', 'Helvetica', 'DejaVu Sans', sans-serif; text-anchor: start" x="55.01475" y="28.657781" transform="rotate(-0 55.01475 28.657781)">CV</text>
    </g>
    <g id="line2d_42">
     <path d="M 37.65475 35.257875 
L 43.85475 35.257875 
L 50.05475 35.257875 
" style="fill: none; stroke: #9aa4ae; stroke-linecap: square"/>
     <g>
      <use xlink:href="#m7bb64fbd9f" x="43.85475" y="35.257875" style="fill: #9aa4ae; stroke: #9aa4ae"/>
     </g>
    </g>
    <g id="text_22">
     <text style="font-size: 6.2px; font-family: 'Arial', 'Helvetica', 'DejaVu Sans', sans-serif; text-anchor: start" x="55.01475" y="37.427875" transform="rotate(-0 55.01475 37.427875)">CA</text>
    </g>
    <g id="line2d_43">
     <path d="M 37.65475 44.027969 
L 43.85475 44.027969 
L 50.05475 44.027969 
" style="fill: none; stroke: #4b88a2; stroke-linecap: square"/>
     <g>
      <use xlink:href="#m6fb3cae1d9" x="43.85475" y="44.027969" style="fill: #4b88a2; stroke: #4b88a2"/>
     </g>
    </g>
    <g id="text_23">
     <text style="font-size: 6.2px; font-family: 'Arial', 'Helvetica', 'DejaVu Sans', sans-serif; text-anchor: start" x="55.01475" y="46.197969" transform="rotate(-0 55.01475 46.197969)">Ridge</text>
    </g>
    <g id="line2d_44">
     <path d="M 83.613219 26.487781 
L 89.813219 26.487781 
L 96.013219 26.487781 
" style="fill: none; stroke: #7fb3b5; stroke-linecap: square"/>
     <g>
      <use xlink:href="#mbc68c2bc08" x="89.813219" y="26.487781" style="fill: #7fb3b5; stroke: #7fb3b5"/>
     </g>
    </g>
    <g id="text_24">
     <text style="font-size: 6.2px; font-family: 'Arial', 'Helvetica', 'DejaVu Sans', sans-serif; text-anchor: start" x="100.973219" y="28.657781" transform="rotate(-0 100.973219 28.657781)">Ridge+nonlinear</text>
    </g>
    <g id="line2d_45">
     <path d="M 83.613219 35.330531 
L 89.813219 35.330531 
L 96.013219 35.330531 
" style="fill: none; stroke: #b07aa1; stroke-linecap: square"/>
     <g>
      <use xlink:href="#m915576f4d2" x="89.813219" y="35.330531" style="fill: #b07aa1; stroke: #b07aa1"/>
     </g>
    </g>
    <g id="text_25">
     <text style="font-size: 6.2px; font-family: 'Arial', 'Helvetica', 'DejaVu Sans', sans-serif; text-anchor: start" x="100.973219" y="37.500531" transform="rotate(-0 100.973219 37.500531)">XGBoost</text>
    </g>
    <g id="line2d_46">
     <path d="M 83.613219 44.100625 
L 89.813219 44.100625 
L 96.013219 44.100625 
" style="fill: none; stroke: #d95f02; stroke-linecap: square"/>
     <g>
      <use xlink:href="#m7598a57b88" x="89.813219" y="44.100625" style="fill: #d95f02; stroke: #d95f02"/>
     </g>
    </g>
    <g id="text_26">
     <text style="font-size: 6.2px; font-family: 'Arial', 'Helvetica', 'DejaVu Sans', sans-serif; text-anchor: start" x="100.973219" y="46.270625" transform="rotate(-0 100.973219 46.270625)">XGBoost+nonlinear</text>
    </g>
   </g>
  </g>
 </g>
 <defs>
  <clipPath id="pc6787c53b2">
   <rect x="32.07475" y="18.639938" width="219.852" height="135.828"/>
  </clipPath>
 </defs>
</svg>
